<svg width="96" height="96" xmlns="http://www.w3.org/2000/svg" xmlns:xlink="http://www.w3.org/1999/xlink" xml:space="preserve" overflow="hidden"><g transform="translate(-88 -213)"><path d="M108 265 136 265 136 269 108 269Z"/><path d="M108 273 136 273 136 277 108 277Z"/><path d="M112.4 255.3C112.5 255.3 123.1 251.5 136 251.5 148.9 251.5 159.5 255.3 159.6 255.3 160 255.4 160.3 255.5 160.7 255.5 162.1 255.5 163.4 254.6 163.8 253.1 164.4 251.3 163.5 249.3 161.7 248.7 161.3 248.5 150 244.5 136 244.5 122 244.5 110.7 248.5 110.2 248.7 108.5 249.3 107.5 251.3 108.1 253.1 108.8 255 110.7 255.9 112.4 255.3"/><path d="M96 289 176 289 176 233 96 233 96 289ZM170 283 102 283 102 239 170 239 170 283Z"/><path d="M161.5 268.3 161.9 265.6 159.3 266.1 158.3 263.5 156.3 265.3 154.2 263.5 153.3 266.1 150.6 265.6 151.1 268.3 148.5 269.2 150.3 271.3 148.5 273.3 151.1 274.3 150.6 276.9 153.3 276.5 154.2 279 156.3 277.3 158.3 279 159.3 276.5 161.9 276.9 161.5 274.3 164 273.3 162.3 271.3 164 269.2Z"/></g></svg>