<svg width="96" height="96" xmlns="http://www.w3.org/2000/svg" xmlns:xlink="http://www.w3.org/1999/xlink" xml:space="preserve" overflow="hidden"><g transform="translate(-490 -303)"><path d="M498 323 498 379 578 379 578 323 498 323ZM539.4 357.9C538.6 358.7 537.4 358.7 536.6 357.9L507 329 569.1 329 539.4 357.9ZM523.5 350.7 504 370.3 504 331.6 523.5 350.7ZM526.4 353.5 533.9 360.8C535.1 361.9 536.6 362.5 538.1 362.5 539.6 362.5 541.1 361.9 542.3 360.8L549.8 353.5 569.2 373 506.9 373 526.4 353.5ZM552.5 350.7 572 331.7 572 370.2 552.5 350.7Z"/></g></svg>