<svg width="96" height="96" xmlns="http://www.w3.org/2000/svg" xmlns:xlink="http://www.w3.org/1999/xlink" xml:space="preserve" overflow="hidden"><g transform="translate(-78 -599)"><path d="M167.84 641.26C167.84 634.26 163.92 624 155.5 624L137.5 624C137.053 623.102 136.281 622.408 135.34 622.06 134.378 621.671 133.302 621.671 132.34 622.06 131.572 621.363 130.576 620.972 129.54 620.96 128.374 620.95 127.257 621.429 126.46 622.28 125.389 621.81 124.171 621.81 123.1 622.28 122.303 622.638 121.641 623.24 121.21 624 121.21 624 94.73 624 94.65 624.06 88.9 624.71 84.5 631.91 84.5 641 84.5 650.53 89.33 658 95.5 658L119 658 119 673 129 665.25 139 673 139 658 162.5 658C163.605 658 164.5 657.105 164.5 656 164.5 654.895 163.605 654 162.5 654 159.603 654.13 157.146 651.896 157 649L163 649C165.34 649 167.84 647 167.84 641.26ZM129.34 628.18C134.189 628.18 138.12 632.111 138.12 636.96 138.12 641.809 134.189 645.74 129.34 645.74 124.506 645.74 120.582 641.833 120.56 637 120.538 632.151 124.451 628.202 129.3 628.18 129.313 628.18 129.327 628.18 129.34 628.18ZM117.06 628C117.04 628.253 117.04 628.507 117.06 628.76 114.924 629.601 113.869 632.01 114.7 634.15 113.98 634.926 113.574 635.942 113.56 637 113.572 638.138 114.049 639.222 114.88 640 114.41 641.067 114.41 642.283 114.88 643.35 115.155 643.997 115.589 644.564 116.14 645L104.92 645C105.62 643.425 105.988 641.723 106 640 106 635 104.78 630.84 102.73 628ZM95.5 654C92.12 654 88.5 648.78 88.5 641 88.5 633.22 92.12 628 95.5 628 99.27 628 102 633 102 640 102 640 101.93 645 99 645 97.58 645 96 642.65 96 639.5 95.9951 638.828 96.0655 638.157 96.21 637.5 96.4502 636.42 95.7697 635.35 94.69 635.11 93.6103 634.87 92.5402 635.55 92.3 636.63 92.0952 637.573 91.9946 638.535 92 639.5 92 644.83 95.08 649 99 649L119 649 119 654ZM129 660.19 123 664.84 123 651.49C123.232 651.635 123.476 651.759 123.73 651.86 124.695 652.235 125.765 652.235 126.73 651.86 127.501 652.576 128.508 652.982 129.56 653 130.725 653.005 131.84 652.527 132.64 651.68 133.385 651.993 134.203 652.09 135 651.96L135 664.84ZM139 654 139 649.35C139.304 649.263 139.599 649.146 139.88 649L153 649C153 650.794 153.563 652.543 154.61 654ZM142.4 645C143.349 644.561 144.089 643.768 144.46 642.79 144.832 641.825 144.832 640.755 144.46 639.79 145.167 639.029 145.559 638.029 145.56 636.99 145.565 635.825 145.087 634.71 144.24 633.91 144.705 632.838 144.705 631.622 144.24 630.55 143.828 629.585 143.057 628.818 142.09 628.41 142.072 628.271 142.042 628.134 142 628L155.5 628C159.5 628 162.08 632.35 163.17 636.42 164.44 641.2 163.6 644.65 163 645Z"/></g></svg>