<svg width="96" height="96" xmlns="http://www.w3.org/2000/svg" xmlns:xlink="http://www.w3.org/1999/xlink" xml:space="preserve" overflow="hidden"><g transform="translate(-126 -322)"><path d="M185.3 359.3C181.1 359.3 177.8 355.9 177.8 351.8 177.8 347.7 181.2 344.3 185.3 344.3 189.5 344.3 192.8 347.7 192.8 351.8 192.8 355.9 189.4 359.3 185.3 359.3ZM202.2 347.1C201.8 345.7 201.3 344.4 200.6 343.2L202.2 338.5 198.6 334.9 193.9 336.5C192.7 335.8 191.4 335.3 190 334.9L187.8 330.5 182.8 330.5 180.6 334.9C179.2 335.3 177.9 335.8 176.7 336.5L172 334.9 168.4 338.5 170 343.2C169.3 344.4 168.8 345.7 168.4 347.1L164 349.3 164 354.3 168.4 356.5C168.8 357.9 169.3 359.2 170 360.4L168.4 365.1 171.9 368.6 176.6 367C177.8 367.7 179.1 368.2 180.5 368.6L182.7 373 187.7 373 189.9 368.6C191.3 368.2 192.6 367.7 193.8 367L198.5 368.6 202.1 365.1 200.5 360.4C201.2 359.2 201.8 357.8 202.2 356.5L206.6 354.3 206.6 349.3 202.2 347.1Z"/><path d="M162.7 395.7C158.5 395.7 155.2 392.3 155.2 388.2 155.2 384 158.6 380.7 162.7 380.7 166.9 380.7 170.2 384.1 170.2 388.2 170.2 392.3 166.9 395.7 162.7 395.7L162.7 395.7ZM178 379.6 179.6 374.9 176 371.3 171.3 372.9C170.1 372.2 168.7 371.7 167.4 371.3L165.2 366.9 160.2 366.9 158 371.3C156.6 371.7 155.3 372.2 154.1 372.9L149.4 371.3 145.9 374.8 147.4 379.5C146.7 380.7 146.2 382.1 145.8 383.4L141.4 385.6 141.4 390.6 145.8 392.8C146.2 394.2 146.7 395.5 147.4 396.7L145.9 401.4 149.4 404.9 154.1 403.4C155.3 404.1 156.6 404.6 158 405L160.2 409.4 165.2 409.4 167.4 405C168.8 404.6 170.1 404.1 171.3 403.4L176 405 179.5 401.4 178 396.8C178.7 395.6 179.2 394.3 179.6 392.9L184 390.7 184 385.7 179.6 383.5C179.2 382.1 178.7 380.8 178 379.6Z"/></g></svg>