<svg width="96" height="96" xmlns="http://www.w3.org/2000/svg" xmlns:xlink="http://www.w3.org/1999/xlink" xml:space="preserve" overflow="hidden"><g transform="translate(-333 -394)"><path d="M356 408 406 408 406 476 356 476 356 408ZM350 482 412 482 412 402 350 402 350 482Z"/><path d="M363 414 371 414 371 422 363 422Z"/><path d="M379 416 399 416 399 420 379 420Z"/><path d="M363 430 371 430 371 438 363 438Z"/><path d="M379 432 399 432 399 436 379 436Z"/><path d="M363 446 371 446 371 454 363 454Z"/><path d="M379 448 399 448 399 452 379 452Z"/><path d="M363 462 371 462 371 470 363 470Z"/><path d="M379 464 399 464 399 468 379 468Z"/></g></svg>