<svg width="96" height="96" xmlns="http://www.w3.org/2000/svg" xmlns:xlink="http://www.w3.org/1999/xlink" xml:space="preserve" overflow="hidden"><g transform="translate(-661 -381)"><path d="M723.2 435.6C727.4 437.1 731.4 438.8 734.7 441.5 736.1 442.6 736.9 444.2 736.9 446L738.7 461.5C738.8 462.2 738.5 462.9 737.9 463.3L737.9 463.3C736.2 464.4 734.4 465.3 732.5 465.9L732.5 469.1 735.2 469.1C736.9 468.4 738.6 467.6 740.1 466.6L740.1 466.6C741.9 465.4 742.9 463.2 742.6 461L741 445.9C740.9 443 739.6 440.3 737.3 438.5 733.6 435.4 729.2 433.5 724.6 431.9L719.7 429.9C719.3 429.7 719.1 429.4 719.1 429L719.1 426.6C722.9 423.6 725.1 419 725.1 414.1L725.1 410.5C725.7 410.9 726.4 411 727.1 411.1L725.4 406.1C725.2 405.4 725 404.7 724.9 404 724.1 398.3 720.7 394.3 716 391.8 715.6 391.6 715.1 391.6 714.7 391.9L713.8 392.6 712.8 391.2C712.5 390.8 712.1 390.4 711.6 390.3 710.7 390.1 709.8 390 708.9 390 701 390 694.4 396.2 693 404.3L693 405 693 405 693 406.7C693 408.9 692.6 411 691.7 413L690 417C690 417 691.2 416.7 693.2 416.1 693.7 420.2 695.8 423.9 699 426.4L699 428.9C699 429.3 698.8 429.7 698.4 429.8L693.5 431.8C688.9 433.4 684.5 435.3 680.8 438.4 678.5 440.2 677.1 442.9 677 445.8L675.3 461C675 463.2 676 465.4 677.8 466.6 679.3 467.6 681 468.4 682.7 469.1L685.5 469.1 685.5 466C683.6 465.3 681.8 464.5 680.1 463.4 679.5 463 679.2 462.3 679.3 461.6L681 446.2 681 446C681 444.2 681.9 442.6 683.3 441.5 686.6 438.8 690.6 437.1 694.8 435.6L696.4 435.1C699.3 436.9 703.9 438 709 438 714.1 438 718.7 436.9 721.7 435.1L723.2 435.6ZM697 414.9C703.8 412.6 713.6 408.6 718 403 718.9 404.4 719.9 405.7 721 407L721 414C721 420.6 715.6 426 709 426 702.7 426 697.5 421.2 697 414.9ZM701 432.9C702.2 432 703 430.5 703 428.9L703 428.8C706.8 430.4 711.2 430.4 715 428.8L715 428.9C715 430.4 715.7 431.9 716.9 432.9 714.3 433.7 711.6 434.1 708.9 434 706.3 434 703.6 433.6 701 432.9Z"/><path d="M730.6 446.3C730.6 444.9 729.5 443.8 728.1 443.8L728.1 443.8 690 443.8C688.6 443.8 687.5 444.9 687.5 446.3L687.5 446.3 687.5 471.2 679.9 471.2 679.9 472.5C679.9 473.9 681 475 682.4 475L735.7 475C737.1 475 738.2 473.9 738.2 472.5L738.2 471.2 730.6 471.2 730.6 446.3ZM703.8 462.8 702.4 464.2 696.8 458.6 702.4 453 703.8 454.4 699.6 458.6 703.8 462.8ZM707.6 464.9 705.8 464.1 710.5 452.8 712.3 453.6 707.6 464.9ZM715.6 464.3 714.2 462.9 718.4 458.7 714.2 454.5 715.6 453.1 721.2 458.7 715.6 464.3Z"/></g></svg>