<svg width="96" height="96" xmlns="http://www.w3.org/2000/svg" xmlns:xlink="http://www.w3.org/1999/xlink" xml:space="preserve" overflow="hidden"><g transform="translate(-298 -517)"><path d="M354 567.5C354 569.7 352.2 571.5 350 571.5L346 571.5C343.8 571.5 342 569.7 342 567.5L342 565.5 308 565.5 308 593.5C308 595.7 309.8 597.5 312 597.5L384 597.5C386.2 597.5 388 595.7 388 593.5L388 565.5 354 565.5 354 567.5Z"/><path d="M384 541.5 364 541.5 364 535C364 531.1 360.9 528 357 528L339 528C335.1 528 332 531.1 332 535L332 541.5 312 541.5C309.8 541.5 308 543.3 308 545.5L308 561.5 342 561.5 342 559.5 354 559.5 354 561.5 388 561.5 388 545.5C388 543.3 386.2 541.5 384 541.5M338 541.5 338 535C338 534.4 338.4 534 339 534L357 534C357.6 534 358 534.4 358 535L358 541.5 338 541.5Z"/></g></svg>